<svg id="Capa_1" enable-background="new 0 0 511.993 511.993" height="512" viewBox="0 0 511.993 511.993" width="512" xmlns="http://www.w3.org/2000/svg"><g><path d="m283.223 504.494h-54.45c-10.331 0-18.934-7.926-19.778-18.222l-7.435-90.655h108.877l-7.435 90.655c-.846 10.295-9.449 18.222-19.779 18.222z" fill="#fbcc85"/><path d="m307.974 425.633 2.462-30.017h-108.877l2.462 30.017z" fill="#e8b66b"/><path d="m310.441 395.618-7.441 90.65c-.844 10.299-9.446 18.227-19.775 18.227h-22.355c10.339 0 18.942-7.928 19.785-18.227l7.432-90.65z" fill="#e8b66b"/><g><path d="m322.666 7.5c-26.641 0-50.511 12.619-66.665 32.557-16.154-19.938-40.024-32.557-66.664-32.557-48.667 0-88.126 42.104-88.126 94.047 0 45.394 41.478 122.512 133.339 169.728 5.586 2.871 11.36 5.632 17.32 8.266 2.626 1.16 5.635 1.16 8.261 0 5.961-2.634 11.734-5.395 17.32-8.266 91.852-47.216 133.33-124.334 133.33-169.728.001-51.943-39.448-94.047-88.115-94.047z" fill="#fca5cd"/><path d="m410.784 101.542c0 45.394-41.479 122.512-133.329 169.728-5.589 2.871-11.364 5.632-17.325 8.265-2.627 1.161-5.637 1.16-8.264-.002-5.954-2.633-11.728-5.393-17.316-8.263-1.718-.885-3.415-1.77-5.091-2.686 88.289-47.403 128.228-122.501 128.228-167.042 0-42.073-25.873-77.68-61.573-89.695 8.381-2.832 17.293-4.352 26.549-4.352 48.672 0 88.121 42.104 88.121 94.047z" fill="#fc7cb6"/></g><path d="m313.963 410.547h-115.93c-5.48 0-9.922-4.442-9.922-9.922v-12.004c0-5.48 4.442-9.922 9.922-9.922h115.93c5.48 0 9.922 4.442 9.922 9.922v12.004c0 5.48-4.443 9.922-9.922 9.922z" fill="#f9e1c2"/><path d="m323.886 388.623v12.006c0 5.477-4.445 9.922-9.922 9.922h-22.355c5.487 0 9.922-4.445 9.922-9.922v-12.006c0-5.477-4.435-9.922-9.922-9.922h22.355c5.477-.001 9.922 4.445 9.922 9.922z" fill="#fcd79f"/><g><g><ellipse cx="206.483" cy="454.042" fill="#27d1b3" rx="17.6" ry="22.763"/><path d="m224.088 454.04c0 12.571-7.888 22.762-17.602 22.762-3.205 0-6.211-1.111-8.801-3.046 5.259-3.939 8.801-11.291 8.801-19.715s-3.542-15.776-8.801-19.716c2.59-1.935 5.596-3.046 8.801-3.046 9.713-.001 17.602 10.19 17.602 22.761z" fill="#20b69f"/></g><g><ellipse cx="305.512" cy="454.042" fill="#20b69f" rx="17.6" ry="22.763"/><path d="m323.112 454.04c0 12.571-7.878 22.762-17.602 22.762-3.205 0-6.211-1.111-8.801-3.056 5.259-3.929 8.801-11.282 8.801-19.706s-3.542-15.776-8.801-19.706c2.59-1.945 5.596-3.056 8.801-3.056 9.724 0 17.602 10.191 17.602 22.762z" fill="#17998c"/></g></g><g><path d="m322.667 0c-25.029 0-48.887 10.384-66.669 28.76-13.009-13.412-29.501-22.765-47.233-26.653-4.045-.885-8.045 1.674-8.933 5.72s1.674 8.045 5.72 8.933c17.19 3.77 33.038 13.721 44.623 28.02 1.424 1.757 3.565 2.778 5.828 2.778 2.262 0 4.403-1.021 5.827-2.778 15.332-18.926 37.507-29.78 60.837-29.78 44.452 0 80.616 38.825 80.616 86.547 0 46.835-45.302 119.899-129.258 163.057-3.447 1.772-6.972 3.492-10.527 5.156v-9.794c0-4.143-3.358-7.5-7.5-7.5s-7.5 3.357-7.5 7.5v9.79c-3.552-1.664-7.074-3.382-10.518-5.153-36.217-18.615-67.605-43.867-90.771-73.026-2.577-3.244-7.294-3.784-10.538-1.207-3.243 2.576-3.783 7.294-1.207 10.537 9.992 12.577 21.437 24.442 34.049 35.432l22.849 135.826c-6.827 2.361-11.75 8.837-11.75 16.456v12.004c0 8.87 6.667 16.197 15.251 17.272l.685 8.36c-8.911 4.651-15.164 15.353-15.164 27.786 0 14.524 8.533 26.688 19.871 29.597l.266 3.246c1.155 14.079 13.126 25.108 27.253 25.108h54.45c14.127 0 26.098-11.029 27.253-25.108l.266-3.246c11.338-2.909 19.871-15.073 19.871-29.597 0-12.433-6.253-23.135-15.164-27.786l.686-8.359c8.583-1.074 15.251-8.402 15.251-17.272v-12.004c0-7.619-4.923-14.095-11.75-16.456l22.835-135.747c19.063-16.63 32.773-33.026 42.212-46.356 21.353-30.152 33.6-62.415 33.6-88.515-.002-55.994-42.895-101.548-95.617-101.548zm-6.282 400.625c0 1.335-1.087 2.422-2.422 2.422h-28.531c-4.142 0-7.5 3.357-7.5 7.5s3.358 7.5 7.5 7.5h15.64l-.519 6.328c-11.473 2.784-20.14 15.027-20.14 29.667 0 1.238.069 2.456.19 3.655-.299.232-.589.48-.858.763-6.256 6.579-14.689 10.202-23.746 10.202s-17.49-3.623-23.746-10.202c-.269-.283-.559-.531-.858-.763.12-1.199.19-2.417.19-3.655 0-14.641-8.667-26.884-20.14-29.667l-.519-6.328h41.516c4.142 0 7.5-3.357 7.5-7.5s-3.358-7.5-7.5-7.5h-54.408c-1.335 0-2.422-1.087-2.422-2.422v-12.004c0-1.336 1.087-2.423 2.422-2.423h115.93c1.335 0 2.422 1.087 2.422 2.423v12.004zm-67.887-29.427h-41.089l-5.564-33.074c6.126 3.311 13.148 5.172 20.466 5.172 9.893 0 19.016-3.25 26.187-8.766zm15 0v-36.666c7.171 5.516 16.293 8.765 26.186 8.765 7.319 0 14.34-1.862 20.467-5.173l-5.564 33.074zm-32.376-93.253c5.656 2.906 11.5 5.697 17.375 8.301v21.646c-2.187 11.663-13.345 20.405-26.187 20.405-10.942 0-20.794-6.282-24.758-15.687l-10.445-62.092c13.673 10.189 28.414 19.408 44.015 27.427zm-34.74 176.097c0-8.273 4.625-15.264 10.101-15.264 5.475 0 10.1 6.99 10.1 15.264s-4.625 15.263-10.1 15.263-10.101-6.99-10.101-15.263zm86.841 42.951h-54.45c-6.377 0-11.782-4.979-12.303-11.334l-.303-3.699c3.861-1.954 7.232-5.041 9.83-8.913 8.463 6.876 18.906 10.615 30.001 10.615s21.538-3.739 30.001-10.615c2.599 3.871 5.969 6.958 9.83 8.913l-.303 3.698c-.522 6.357-5.926 11.335-12.303 11.335zm22.289-27.688c-5.475 0-10.1-6.989-10.1-15.263s4.625-15.264 10.1-15.264 10.101 6.99 10.101 15.264-4.626 15.263-10.101 15.263zm8.931-156.698c-3.963 9.406-13.815 15.69-24.759 15.69-12.841 0-23.997-8.74-26.186-20.401v-21.646c5.877-2.604 11.724-5.397 17.384-8.306 16.671-8.569 31.261-17.861 43.992-27.341z"/><path d="m108.711 101.547c0-42.244 28.103-78.108 66.822-85.278 4.073-.755 6.763-4.668 6.009-8.74-.754-4.075-4.669-6.761-8.74-6.01-45.828 8.487-79.09 50.555-79.09 100.028 0 21.011 8.01 46.354 22.556 71.359 1.393 2.395 3.906 3.73 6.49 3.73 1.28 0 2.578-.328 3.764-1.018 3.581-2.083 4.795-6.674 2.712-10.254-13.235-22.751-20.523-45.415-20.523-63.817z"/><path d="m216.366 146.887v-10.915c0-4.143-3.358-7.5-7.5-7.5s-7.5 3.357-7.5 7.5v10.915c0 4.143 3.358 7.5 7.5 7.5s7.5-3.358 7.5-7.5z"/><path d="m310.627 146.887v-10.915c0-4.143-3.358-7.5-7.5-7.5s-7.5 3.357-7.5 7.5v10.915c0 4.143 3.358 7.5 7.5 7.5s7.5-3.358 7.5-7.5z"/><path d="m255.997 192.042c14.073 0 26.198-10.024 28.83-23.836.776-4.069-1.894-7.996-5.963-8.771-4.066-.778-7.996 1.894-8.771 5.963-1.286 6.747-7.214 11.645-14.095 11.645s-12.809-4.897-14.095-11.645c-.775-4.069-4.705-6.746-8.771-5.963-4.069.775-6.739 4.702-5.963 8.771 2.63 13.812 14.755 23.836 28.828 23.836z"/></g></g></svg>